<?xml version="1.0" encoding="UTF-8"?>
<svg width="53px" height="60px" viewBox="0 0 53 60" version="1.1" xmlns="http://www.w3.org/2000/svg" xmlns:xlink="http://www.w3.org/1999/xlink">
    <title>Group 3</title>
    <defs>
        <path d="M4.29014729,16.9544568 C3.60243983,16.8203532 3.06068857,16.3225957 2.91061177,15.6945207 C2.88133378,15.5604171 2.87309256,15.4609852 2.89803307,15.441856 C2.91885298,15.4227268 3.03141058,15.3804831 3.1522094,15.34621 C3.78569836,15.1547189 4.28168921,14.6721053 4.47752643,14.0402443 C4.58596343,13.6995056 4.54844423,13.1172609 4.39836742,12.8147806 C4.27323112,12.5581306 4.2233501,12.5160862 4.1149131,12.5696878 C4.05245339,12.6003742 4.0398747,12.6577618 4.0398747,12.9219837 C4.0398747,13.8716683 3.53130516,14.5226585 2.60612067,14.7677513 C2.26432724,14.8596113 1.74751649,14.8291241 1.33068466,14.6950205 C1.05568842,14.6107325 0.984770626,14.5649022 0.742956113,14.3311674 C0.434561282,14.040045 0.171926865,13.5996751 0.0593692581,13.1975636 C-0.0197897527,12.9064413 -0.0197897527,12.2745802 0.0593692581,11.9567567 C0.347161059,10.8386954 1.51416007,10 2.78959607,10 C3.50658152,10 4.17346908,10.2450927 4.69027983,10.6970199 C4.86117654,10.8462674 5.06959246,11.068445 5.14875147,11.1909913 L5.29882828,11.4091836 L5.4905449,11.2750801 C6.92841953,10.2602367 9,11.194578 9,12.8528397 C9,13.5383023 8.57904756,14.2275509 7.95379981,14.5647029 C7.54542607,14.7868805 6.92429892,14.9016556 6.5324076,14.8327108 L6.33244977,14.7982384 L6.36584837,14.8978696 C6.38254767,14.9514712 6.39512636,15.1774348 6.39512636,15.3996123 C6.39512636,15.7748234 6.38688515,15.820853 6.26174885,16.0506026 C6.01581373,16.5138876 5.55322148,16.8470544 5.01125335,16.9504715 C4.67770114,17.0158296 4.59442152,17.0158296 4.29014729,16.9544568 Z" id="path-1"></path>
        <filter x="-16.7%" y="-21.4%" width="133.3%" height="142.9%" filterUnits="objectBoundingBox" id="filter-2">
            <feOffset dx="0" dy="0" in="SourceAlpha" result="shadowOffsetOuter1"></feOffset>
            <feGaussianBlur stdDeviation="0.5" in="shadowOffsetOuter1" result="shadowBlurOuter1"></feGaussianBlur>
            <feColorMatrix values="0 0 0 0 0.97254902   0 0 0 0 0.768627451   0 0 0 0 0.42745098  0 0 0 0.853693182 0" type="matrix" in="shadowBlurOuter1"></feColorMatrix>
        </filter>
        <path d="M4.29014729,16.9544568 C3.60243983,16.8203532 3.06068857,16.3225957 2.91061177,15.6945207 C2.88133378,15.5604171 2.87309256,15.4609852 2.89803307,15.441856 C2.91885298,15.4227268 3.03141058,15.3804831 3.1522094,15.34621 C3.78569836,15.1547189 4.28168921,14.6721053 4.47752643,14.0402443 C4.58596343,13.6995056 4.54844423,13.1172609 4.39836742,12.8147806 C4.27323112,12.5581306 4.2233501,12.5160862 4.1149131,12.5696878 C4.05245339,12.6003742 4.0398747,12.6577618 4.0398747,12.9219837 C4.0398747,13.8716683 3.53130516,14.5226585 2.60612067,14.7677513 C2.26432724,14.8596113 1.74751649,14.8291241 1.33068466,14.6950205 C1.05568842,14.6107325 0.984770626,14.5649022 0.742956113,14.3311674 C0.434561282,14.040045 0.171926865,13.5996751 0.0593692581,13.1975636 C-0.0197897527,12.9064413 -0.0197897527,12.2745802 0.0593692581,11.9567567 C0.347161059,10.8386954 1.51416007,10 2.78959607,10 C3.50658152,10 4.17346908,10.2450927 4.69027983,10.6970199 C4.86117654,10.8462674 5.06959246,11.068445 5.14875147,11.1909913 L5.29882828,11.4091836 L5.4905449,11.2750801 C6.92841953,10.2602367 9,11.194578 9,12.8528397 C9,13.5383023 8.57904756,14.2275509 7.95379981,14.5647029 C7.54542607,14.7868805 6.92429892,14.9016556 6.5324076,14.8327108 L6.33244977,14.7982384 L6.36584837,14.8978696 C6.38254767,14.9514712 6.39512636,15.1774348 6.39512636,15.3996123 C6.39512636,15.7748234 6.38688515,15.820853 6.26174885,16.0506026 C6.01581373,16.5138876 5.55322148,16.8470544 5.01125335,16.9504715 C4.67770114,17.0158296 4.59442152,17.0158296 4.29014729,16.9544568 Z" id="path-3"></path>
        <filter x="-16.7%" y="-21.4%" width="133.3%" height="142.9%" filterUnits="objectBoundingBox" id="filter-4">
            <feOffset dx="0" dy="0" in="SourceAlpha" result="shadowOffsetOuter1"></feOffset>
            <feGaussianBlur stdDeviation="0.5" in="shadowOffsetOuter1" result="shadowBlurOuter1"></feGaussianBlur>
            <feColorMatrix values="0 0 0 0 0.97254902   0 0 0 0 0.768627451   0 0 0 0 0.42745098  0 0 0 0.853693182 0" type="matrix" in="shadowBlurOuter1"></feColorMatrix>
        </filter>
        <path d="M16.7901473,6.95445679 C16.1024398,6.8203532 15.5606886,6.32259574 15.4106118,5.69452068 C15.3813338,5.56041709 15.3730926,5.46098515 15.3980331,5.44185596 C15.418853,5.42272677 15.5314106,5.38048315 15.6522094,5.34621002 C16.2856984,5.15471885 16.7816892,4.67210534 16.9775264,4.04024429 C17.0859634,3.6995056 17.0484442,3.11726088 16.8983674,2.81478057 C16.7732311,2.55813061 16.7233501,2.51608624 16.6149131,2.56968783 C16.5524534,2.60037423 16.5398747,2.6577618 16.5398747,2.92198374 C16.5398747,3.8716683 16.0313052,4.52265854 15.1061207,4.76775129 C14.7643272,4.85961125 14.2475165,4.8291241 13.8306847,4.69502051 C13.5556884,4.61073252 13.4847706,4.56490217 13.2429561,4.33116738 C12.9345613,4.04004503 12.6719269,3.59967514 12.5593693,3.19756363 C12.4802102,2.90644127 12.4802102,2.27458022 12.5593693,1.9567567 C12.8471611,0.838695414 14.0141601,0 15.2895961,0 C16.0065815,0 16.6734691,0.245092744 17.1902798,0.697019852 C17.3611765,0.846267385 17.5695925,1.06844495 17.6487515,1.19099133 L17.7988283,1.40918365 L17.9905449,1.27508006 C19.4284195,0.260236686 21.5,1.19457805 21.5,2.85283969 C21.5,3.53830232 21.0790476,4.22755094 20.4537998,4.56470291 C20.0454261,4.78688048 19.4242989,4.90165562 19.0324076,4.83271083 L18.8324498,4.79823843 L18.8658484,4.89786963 C18.8825477,4.95147121 18.8951264,5.17743477 18.8951264,5.39961234 C18.8951264,5.77482342 18.8868851,5.82085304 18.7617488,6.05060258 C18.5158137,6.51388764 18.0532215,6.84705436 17.5112534,6.95047154 C17.1777011,7.01582961 17.0944215,7.01582961 16.7901473,6.95445679 Z" id="path-5"></path>
        <filter x="-16.7%" y="-21.4%" width="133.3%" height="142.9%" filterUnits="objectBoundingBox" id="filter-6">
            <feOffset dx="0" dy="0" in="SourceAlpha" result="shadowOffsetOuter1"></feOffset>
            <feGaussianBlur stdDeviation="0.5" in="shadowOffsetOuter1" result="shadowBlurOuter1"></feGaussianBlur>
            <feColorMatrix values="0 0 0 0 0.97254902   0 0 0 0 0.768627451   0 0 0 0 0.42745098  0 0 0 0.853693182 0" type="matrix" in="shadowBlurOuter1"></feColorMatrix>
        </filter>
        <path d="M25.7901473,7.45445679 C25.1024398,7.3203532 24.5606886,6.82259574 24.4106118,6.19452068 C24.3813338,6.06041709 24.3730926,5.96098515 24.3980331,5.94185596 C24.418853,5.92272677 24.5314106,5.88048315 24.6522094,5.84621002 C25.2856984,5.65471885 25.7816892,5.17210534 25.9775264,4.54024429 C26.0859634,4.1995056 26.0484442,3.61726088 25.8983674,3.31478057 C25.7732311,3.05813061 25.7233501,3.01608624 25.6149131,3.06968783 C25.5524534,3.10037423 25.5398747,3.1577618 25.5398747,3.42198374 C25.5398747,4.3716683 25.0313052,5.02265854 24.1061207,5.26775129 C23.7643272,5.35961125 23.2475165,5.3291241 22.8306847,5.19502051 C22.5556884,5.11073252 22.4847706,5.06490217 22.2429561,4.83116738 C21.9345613,4.54004503 21.6719269,4.09967514 21.5593693,3.69756363 C21.4802102,3.40644127 21.4802102,2.77458022 21.5593693,2.4567567 C21.8471611,1.33869541 23.0141601,0.5 24.2895961,0.5 C25.0065815,0.5 25.6734691,0.745092744 26.1902798,1.19701985 C26.3611765,1.34626738 26.5695925,1.56844495 26.6487515,1.69099133 L26.7988283,1.90918365 L26.9905449,1.77508006 C28.4284195,0.760236686 30.5,1.69457805 30.5,3.35283969 C30.5,4.03830232 30.0790476,4.72755094 29.4537998,5.06470291 C29.0454261,5.28688048 28.4242989,5.40165562 28.0324076,5.33271083 L27.8324498,5.29823843 L27.8658484,5.39786963 C27.8825477,5.45147121 27.8951264,5.67743477 27.8951264,5.89961234 C27.8951264,6.27482342 27.8868851,6.32085304 27.7617488,6.55060258 C27.5158137,7.01388764 27.0532215,7.34705436 26.5112534,7.45047154 C26.1777011,7.51582961 26.0944215,7.51582961 25.7901473,7.45445679 Z" id="path-7"></path>
        <filter x="-16.7%" y="-21.4%" width="133.3%" height="142.9%" filterUnits="objectBoundingBox" id="filter-8">
            <feOffset dx="0" dy="0" in="SourceAlpha" result="shadowOffsetOuter1"></feOffset>
            <feGaussianBlur stdDeviation="0.5" in="shadowOffsetOuter1" result="shadowBlurOuter1"></feGaussianBlur>
            <feColorMatrix values="0 0 0 0 0.97254902   0 0 0 0 0.768627451   0 0 0 0 0.42745098  0 0 0 0.853693182 0" type="matrix" in="shadowBlurOuter1"></feColorMatrix>
        </filter>
        <path d="M31.2901473,8.45445679 C30.6024398,8.3203532 30.0606886,7.82259574 29.9106118,7.19452068 C29.8813338,7.06041709 29.8730926,6.96098515 29.8980331,6.94185596 C29.918853,6.92272677 30.0314106,6.88048315 30.1522094,6.84621002 C30.7856984,6.65471885 31.2816892,6.17210534 31.4775264,5.54024429 C31.5859634,5.1995056 31.5484442,4.61726088 31.3983674,4.31478057 C31.2732311,4.05813061 31.2233501,4.01608624 31.1149131,4.06968783 C31.0524534,4.10037423 31.0398747,4.1577618 31.0398747,4.42198374 C31.0398747,5.3716683 30.5313052,6.02265854 29.6061207,6.26775129 C29.2643272,6.35961125 28.7475165,6.3291241 28.3306847,6.19502051 C28.0556884,6.11073252 27.9847706,6.06490217 27.7429561,5.83116738 C27.4345613,5.54004503 27.1719269,5.09967514 27.0593693,4.69756363 C26.9802102,4.40644127 26.9802102,3.77458022 27.0593693,3.4567567 C27.3471611,2.33869541 28.5141601,1.5 29.7895961,1.5 C30.5065815,1.5 31.1734691,1.74509274 31.6902798,2.19701985 C31.8611765,2.34626738 32.0695925,2.56844495 32.1487515,2.69099133 L32.2988283,2.90918365 L32.4905449,2.77508006 C33.9284195,1.76023669 36,2.69457805 36,4.35283969 C36,5.03830232 35.5790476,5.72755094 34.9537998,6.06470291 C34.5454261,6.28688048 33.9242989,6.40165562 33.5324076,6.33271083 L33.3324498,6.29823843 L33.3658484,6.39786963 C33.3825477,6.45147121 33.3951264,6.67743477 33.3951264,6.89961234 C33.3951264,7.27482342 33.3868851,7.32085304 33.2617488,7.55060258 C33.0158137,8.01388764 32.5532215,8.34705436 32.0112534,8.45047154 C31.6777011,8.51582961 31.5944215,8.51582961 31.2901473,8.45445679 Z" id="path-9"></path>
        <filter x="-16.7%" y="-21.4%" width="133.3%" height="142.9%" filterUnits="objectBoundingBox" id="filter-10">
            <feOffset dx="0" dy="0" in="SourceAlpha" result="shadowOffsetOuter1"></feOffset>
            <feGaussianBlur stdDeviation="0.5" in="shadowOffsetOuter1" result="shadowBlurOuter1"></feGaussianBlur>
            <feColorMatrix values="0 0 0 0 0.97254902   0 0 0 0 0.768627451   0 0 0 0 0.42745098  0 0 0 0.853693182 0" type="matrix" in="shadowBlurOuter1"></feColorMatrix>
        </filter>
        <path d="M20.7901473,7.45445679 C20.1024398,7.3203532 19.5606886,6.82259574 19.4106118,6.19452068 C19.3813338,6.06041709 19.3730926,5.96098515 19.3980331,5.94185596 C19.418853,5.92272677 19.5314106,5.88048315 19.6522094,5.84621002 C20.2856984,5.65471885 20.7816892,5.17210534 20.9775264,4.54024429 C21.0859634,4.1995056 21.0484442,3.61726088 20.8983674,3.31478057 C20.7732311,3.05813061 20.7233501,3.01608624 20.6149131,3.06968783 C20.5524534,3.10037423 20.5398747,3.1577618 20.5398747,3.42198374 C20.5398747,4.3716683 20.0313052,5.02265854 19.1061207,5.26775129 C18.7643272,5.35961125 18.2475165,5.3291241 17.8306847,5.19502051 C17.5556884,5.11073252 17.4847706,5.06490217 17.2429561,4.83116738 C16.9345613,4.54004503 16.6719269,4.09967514 16.5593693,3.69756363 C16.4802102,3.40644127 16.4802102,2.77458022 16.5593693,2.4567567 C16.8471611,1.33869541 18.0141601,0.5 19.2895961,0.5 C20.0065815,0.5 20.6734691,0.745092744 21.1902798,1.19701985 C21.3611765,1.34626738 21.5695925,1.56844495 21.6487515,1.69099133 L21.7988283,1.90918365 L21.9905449,1.77508006 C23.4284195,0.760236686 25.5,1.69457805 25.5,3.35283969 C25.5,4.03830232 25.0790476,4.72755094 24.4537998,5.06470291 C24.0454261,5.28688048 23.4242989,5.40165562 23.0324076,5.33271083 L22.8324498,5.29823843 L22.8658484,5.39786963 C22.8825477,5.45147121 22.8951264,5.67743477 22.8951264,5.89961234 C22.8951264,6.27482342 22.8868851,6.32085304 22.7617488,6.55060258 C22.5158137,7.01388764 22.0532215,7.34705436 21.5112534,7.45047154 C21.1777011,7.51582961 21.0944215,7.51582961 20.7901473,7.45445679 Z" id="path-11"></path>
        <filter x="-16.7%" y="-21.4%" width="133.3%" height="142.9%" filterUnits="objectBoundingBox" id="filter-12">
            <feOffset dx="0" dy="0" in="SourceAlpha" result="shadowOffsetOuter1"></feOffset>
            <feGaussianBlur stdDeviation="0.5" in="shadowOffsetOuter1" result="shadowBlurOuter1"></feGaussianBlur>
            <feColorMatrix values="0 0 0 0 0.97254902   0 0 0 0 0.768627451   0 0 0 0 0.42745098  0 0 0 0.853693182 0" type="matrix" in="shadowBlurOuter1"></feColorMatrix>
        </filter>
        <path d="M36.2901473,11.9544568 C35.6024398,11.8203532 35.0606886,11.3225957 34.9106118,10.6945207 C34.8813338,10.5604171 34.8730926,10.4609852 34.8980331,10.441856 C34.918853,10.4227268 35.0314106,10.3804831 35.1522094,10.34621 C35.7856984,10.1547189 36.2816892,9.67210534 36.4775264,9.04024429 C36.5859634,8.6995056 36.5484442,8.11726088 36.3983674,7.81478057 C36.2732311,7.55813061 36.2233501,7.51608624 36.1149131,7.56968783 C36.0524534,7.60037423 36.0398747,7.6577618 36.0398747,7.92198374 C36.0398747,8.8716683 35.5313052,9.52265854 34.6061207,9.76775129 C34.2643272,9.85961125 33.7475165,9.8291241 33.3306847,9.69502051 C33.0556884,9.61073252 32.9847706,9.56490217 32.7429561,9.33116738 C32.4345613,9.04004503 32.1719269,8.59967514 32.0593693,8.19756363 C31.9802102,7.90644127 31.9802102,7.27458022 32.0593693,6.9567567 C32.3471611,5.83869541 33.5141601,5 34.7895961,5 C35.5065815,5 36.1734691,5.24509274 36.6902798,5.69701985 C36.8611765,5.84626738 37.0695925,6.06844495 37.1487515,6.19099133 L37.2988283,6.40918365 L37.4905449,6.27508006 C38.9284195,5.26023669 41,6.19457805 41,7.85283969 C41,8.53830232 40.5790476,9.22755094 39.9537998,9.56470291 C39.5454261,9.78688048 38.9242989,9.90165562 38.5324076,9.83271083 L38.3324498,9.79823843 L38.3658484,9.89786963 C38.3825477,9.95147121 38.3951264,10.1774348 38.3951264,10.3996123 C38.3951264,10.7748234 38.3868851,10.820853 38.2617488,11.0506026 C38.0158137,11.5138876 37.5532215,11.8470544 37.0112534,11.9504715 C36.6777011,12.0158296 36.5944215,12.0158296 36.2901473,11.9544568 Z" id="path-13"></path>
        <filter x="-16.7%" y="-21.4%" width="133.3%" height="142.9%" filterUnits="objectBoundingBox" id="filter-14">
            <feOffset dx="0" dy="0" in="SourceAlpha" result="shadowOffsetOuter1"></feOffset>
            <feGaussianBlur stdDeviation="0.5" in="shadowOffsetOuter1" result="shadowBlurOuter1"></feGaussianBlur>
            <feColorMatrix values="0 0 0 0 0.97254902   0 0 0 0 0.768627451   0 0 0 0 0.42745098  0 0 0 0.853693182 0" type="matrix" in="shadowBlurOuter1"></feColorMatrix>
        </filter>
        <path d="M27.2901473,10.9544568 C26.6024398,10.8203532 26.0606886,10.3225957 25.9106118,9.69452068 C25.8813338,9.56041709 25.8730926,9.46098515 25.8980331,9.44185596 C25.918853,9.42272677 26.0314106,9.38048315 26.1522094,9.34621002 C26.7856984,9.15471885 27.2816892,8.67210534 27.4775264,8.04024429 C27.5859634,7.6995056 27.5484442,7.11726088 27.3983674,6.81478057 C27.2732311,6.55813061 27.2233501,6.51608624 27.1149131,6.56968783 C27.0524534,6.60037423 27.0398747,6.6577618 27.0398747,6.92198374 C27.0398747,7.8716683 26.5313052,8.52265854 25.6061207,8.76775129 C25.2643272,8.85961125 24.7475165,8.8291241 24.3306847,8.69502051 C24.0556884,8.61073252 23.9847706,8.56490217 23.7429561,8.33116738 C23.4345613,8.04004503 23.1719269,7.59967514 23.0593693,7.19756363 C22.9802102,6.90644127 22.9802102,6.27458022 23.0593693,5.9567567 C23.3471611,4.83869541 24.5141601,4 25.7895961,4 C26.5065815,4 27.1734691,4.24509274 27.6902798,4.69701985 C27.8611765,4.84626738 28.0695925,5.06844495 28.1487515,5.19099133 L28.2988283,5.40918365 L28.4905449,5.27508006 C29.9284195,4.26023669 32,5.19457805 32,6.85283969 C32,7.53830232 31.5790476,8.22755094 30.9537998,8.56470291 C30.5454261,8.78688048 29.9242989,8.90165562 29.5324076,8.83271083 L29.3324498,8.79823843 L29.3658484,8.89786963 C29.3825477,8.95147121 29.3951264,9.17743477 29.3951264,9.39961234 C29.3951264,9.77482342 29.3868851,9.82085304 29.2617488,10.0506026 C29.0158137,10.5138876 28.5532215,10.8470544 28.0112534,10.9504715 C27.6777011,11.0158296 27.5944215,11.0158296 27.2901473,10.9544568 Z" id="path-15"></path>
        <filter x="-16.7%" y="-21.4%" width="133.3%" height="142.9%" filterUnits="objectBoundingBox" id="filter-16">
            <feOffset dx="0" dy="0" in="SourceAlpha" result="shadowOffsetOuter1"></feOffset>
            <feGaussianBlur stdDeviation="0.5" in="shadowOffsetOuter1" result="shadowBlurOuter1"></feGaussianBlur>
            <feColorMatrix values="0 0 0 0 0.97254902   0 0 0 0 0.768627451   0 0 0 0 0.42745098  0 0 0 0.853693182 0" type="matrix" in="shadowBlurOuter1"></feColorMatrix>
        </filter>
        <path d="M20.2901473,11.4544568 C19.6024398,11.3203532 19.0606886,10.8225957 18.9106118,10.1945207 C18.8813338,10.0604171 18.8730926,9.96098515 18.8980331,9.94185596 C18.918853,9.92272677 19.0314106,9.88048315 19.1522094,9.84621002 C19.7856984,9.65471885 20.2816892,9.17210534 20.4775264,8.54024429 C20.5859634,8.1995056 20.5484442,7.61726088 20.3983674,7.31478057 C20.2732311,7.05813061 20.2233501,7.01608624 20.1149131,7.06968783 C20.0524534,7.10037423 20.0398747,7.1577618 20.0398747,7.42198374 C20.0398747,8.3716683 19.5313052,9.02265854 18.6061207,9.26775129 C18.2643272,9.35961125 17.7475165,9.3291241 17.3306847,9.19502051 C17.0556884,9.11073252 16.9847706,9.06490217 16.7429561,8.83116738 C16.4345613,8.54004503 16.1719269,8.09967514 16.0593693,7.69756363 C15.9802102,7.40644127 15.9802102,6.77458022 16.0593693,6.4567567 C16.3471611,5.33869541 17.5141601,4.5 18.7895961,4.5 C19.5065815,4.5 20.1734691,4.74509274 20.6902798,5.19701985 C20.8611765,5.34626738 21.0695925,5.56844495 21.1487515,5.69099133 L21.2988283,5.90918365 L21.4905449,5.77508006 C22.9284195,4.76023669 25,5.69457805 25,7.35283969 C25,8.03830232 24.5790476,8.72755094 23.9537998,9.06470291 C23.5454261,9.28688048 22.9242989,9.40165562 22.5324076,9.33271083 L22.3324498,9.29823843 L22.3658484,9.39786963 C22.3825477,9.45147121 22.3951264,9.67743477 22.3951264,9.89961234 C22.3951264,10.2748234 22.3868851,10.320853 22.2617488,10.5506026 C22.0158137,11.0138876 21.5532215,11.3470544 21.0112534,11.4504715 C20.6777011,11.5158296 20.5944215,11.5158296 20.2901473,11.4544568 Z" id="path-17"></path>
        <filter x="-16.7%" y="-21.4%" width="133.3%" height="142.9%" filterUnits="objectBoundingBox" id="filter-18">
            <feOffset dx="0" dy="0" in="SourceAlpha" result="shadowOffsetOuter1"></feOffset>
            <feGaussianBlur stdDeviation="0.5" in="shadowOffsetOuter1" result="shadowBlurOuter1"></feGaussianBlur>
            <feColorMatrix values="0 0 0 0 0.97254902   0 0 0 0 0.768627451   0 0 0 0 0.42745098  0 0 0 0.853693182 0" type="matrix" in="shadowBlurOuter1"></feColorMatrix>
        </filter>
        <path d="M13.2901473,7.95445679 C12.6024398,7.8203532 12.0606886,7.32259574 11.9106118,6.69452068 C11.8813338,6.56041709 11.8730926,6.46098515 11.8980331,6.44185596 C11.918853,6.42272677 12.0314106,6.38048315 12.1522094,6.34621002 C12.7856984,6.15471885 13.2816892,5.67210534 13.4775264,5.04024429 C13.5859634,4.6995056 13.5484442,4.11726088 13.3983674,3.81478057 C13.2732311,3.55813061 13.2233501,3.51608624 13.1149131,3.56968783 C13.0524534,3.60037423 13.0398747,3.6577618 13.0398747,3.92198374 C13.0398747,4.8716683 12.5313052,5.52265854 11.6061207,5.76775129 C11.2643272,5.85961125 10.7475165,5.8291241 10.3306847,5.69502051 C10.0556884,5.61073252 9.98477063,5.56490217 9.74295611,5.33116738 C9.43456128,5.04004503 9.17192687,4.59967514 9.05936926,4.19756363 C8.98021025,3.90644127 8.98021025,3.27458022 9.05936926,2.9567567 C9.34716106,1.83869541 10.5141601,1 11.7895961,1 C12.5065815,1 13.1734691,1.24509274 13.6902798,1.69701985 C13.8611765,1.84626738 14.0695925,2.06844495 14.1487515,2.19099133 L14.2988283,2.40918365 L14.4905449,2.27508006 C15.9284195,1.26023669 18,2.19457805 18,3.85283969 C18,4.53830232 17.5790476,5.22755094 16.9537998,5.56470291 C16.5454261,5.78688048 15.9242989,5.90165562 15.5324076,5.83271083 L15.3324498,5.79823843 L15.3658484,5.89786963 C15.3825477,5.95147121 15.3951264,6.17743477 15.3951264,6.39961234 C15.3951264,6.77482342 15.3868851,6.82085304 15.2617488,7.05060258 C15.0158137,7.51388764 14.5532215,7.84705436 14.0112534,7.95047154 C13.6777011,8.01582961 13.5944215,8.01582961 13.2901473,7.95445679 Z" id="path-19"></path>
        <filter x="-16.7%" y="-21.4%" width="133.3%" height="142.9%" filterUnits="objectBoundingBox" id="filter-20">
            <feOffset dx="0" dy="0" in="SourceAlpha" result="shadowOffsetOuter1"></feOffset>
            <feGaussianBlur stdDeviation="0.5" in="shadowOffsetOuter1" result="shadowBlurOuter1"></feGaussianBlur>
            <feColorMatrix values="0 0 0 0 0.97254902   0 0 0 0 0.768627451   0 0 0 0 0.42745098  0 0 0 0.853693182 0" type="matrix" in="shadowBlurOuter1"></feColorMatrix>
        </filter>
        <path d="M8.29014729,11.4544568 C7.60243983,11.3203532 7.06068857,10.8225957 6.91061177,10.1945207 C6.88133378,10.0604171 6.87309256,9.96098515 6.89803307,9.94185596 C6.91885298,9.92272677 7.03141058,9.88048315 7.1522094,9.84621002 C7.78569836,9.65471885 8.28168921,9.17210534 8.47752643,8.54024429 C8.58596343,8.1995056 8.54844423,7.61726088 8.39836742,7.31478057 C8.27323112,7.05813061 8.2233501,7.01608624 8.1149131,7.06968783 C8.05245339,7.10037423 8.0398747,7.1577618 8.0398747,7.42198374 C8.0398747,8.3716683 7.53130516,9.02265854 6.60612067,9.26775129 C6.26432724,9.35961125 5.74751649,9.3291241 5.33068466,9.19502051 C5.05568842,9.11073252 4.98477063,9.06490217 4.74295611,8.83116738 C4.43456128,8.54004503 4.17192687,8.09967514 4.05936926,7.69756363 C3.98021025,7.40644127 3.98021025,6.77458022 4.05936926,6.4567567 C4.34716106,5.33869541 5.51416007,4.5 6.78959607,4.5 C7.50658152,4.5 8.17346908,4.74509274 8.69027983,5.19701985 C8.86117654,5.34626738 9.06959246,5.56844495 9.14875147,5.69099133 L9.29882828,5.90918365 L9.4905449,5.77508006 C10.9284195,4.76023669 13,5.69457805 13,7.35283969 C13,8.03830232 12.5790476,8.72755094 11.9537998,9.06470291 C11.5454261,9.28688048 10.9242989,9.40165562 10.5324076,9.33271083 L10.3324498,9.29823843 L10.3658484,9.39786963 C10.3825477,9.45147121 10.3951264,9.67743477 10.3951264,9.89961234 C10.3951264,10.2748234 10.3868851,10.320853 10.2617488,10.5506026 C10.0158137,11.0138876 9.55322148,11.3470544 9.01125335,11.4504715 C8.67770114,11.5158296 8.59442152,11.5158296 8.29014729,11.4544568 Z" id="path-21"></path>
        <filter x="-16.7%" y="-21.4%" width="133.3%" height="142.9%" filterUnits="objectBoundingBox" id="filter-22">
            <feOffset dx="0" dy="0" in="SourceAlpha" result="shadowOffsetOuter1"></feOffset>
            <feGaussianBlur stdDeviation="0.5" in="shadowOffsetOuter1" result="shadowBlurOuter1"></feGaussianBlur>
            <feColorMatrix values="0 0 0 0 0.97254902   0 0 0 0 0.768627451   0 0 0 0 0.42745098  0 0 0 0.853693182 0" type="matrix" in="shadowBlurOuter1"></feColorMatrix>
        </filter>
        <path d="M8.79014729,14.4544568 C8.10243983,14.3203532 7.56068857,13.8225957 7.41061177,13.1945207 C7.38133378,13.0604171 7.37309256,12.9609852 7.39803307,12.941856 C7.41885298,12.9227268 7.53141058,12.8804831 7.6522094,12.84621 C8.28569836,12.6547189 8.78168921,12.1721053 8.97752643,11.5402443 C9.08596343,11.1995056 9.04844423,10.6172609 8.89836742,10.3147806 C8.77323112,10.0581306 8.7233501,10.0160862 8.6149131,10.0696878 C8.55245339,10.1003742 8.5398747,10.1577618 8.5398747,10.4219837 C8.5398747,11.3716683 8.03130516,12.0226585 7.10612067,12.2677513 C6.76432724,12.3596113 6.24751649,12.3291241 5.83068466,12.1950205 C5.55568842,12.1107325 5.48477063,12.0649022 5.24295611,11.8311674 C4.93456128,11.540045 4.67192687,11.0996751 4.55936926,10.6975636 C4.48021025,10.4064413 4.48021025,9.77458022 4.55936926,9.4567567 C4.84716106,8.33869541 6.01416007,7.5 7.28959607,7.5 C8.00658152,7.5 8.67346908,7.74509274 9.19027983,8.19701985 C9.36117654,8.34626738 9.56959246,8.56844495 9.64875147,8.69099133 L9.79882828,8.90918365 L9.9905449,8.77508006 C11.4284195,7.76023669 13.5,8.69457805 13.5,10.3528397 C13.5,11.0383023 13.0790476,11.7275509 12.4537998,12.0647029 C12.0454261,12.2868805 11.4242989,12.4016556 11.0324076,12.3327108 L10.8324498,12.2982384 L10.8658484,12.3978696 C10.8825477,12.4514712 10.8951264,12.6774348 10.8951264,12.8996123 C10.8951264,13.2748234 10.8868851,13.320853 10.7617488,13.5506026 C10.5158137,14.0138876 10.0532215,14.3470544 9.51125335,14.4504715 C9.17770114,14.5158296 9.09442152,14.5158296 8.79014729,14.4544568 Z" id="path-23"></path>
        <filter x="-16.7%" y="-21.4%" width="133.3%" height="142.9%" filterUnits="objectBoundingBox" id="filter-24">
            <feOffset dx="0" dy="0" in="SourceAlpha" result="shadowOffsetOuter1"></feOffset>
            <feGaussianBlur stdDeviation="0.5" in="shadowOffsetOuter1" result="shadowBlurOuter1"></feGaussianBlur>
            <feColorMatrix values="0 0 0 0 0.97254902   0 0 0 0 0.768627451   0 0 0 0 0.42745098  0 0 0 0.853693182 0" type="matrix" in="shadowBlurOuter1"></feColorMatrix>
        </filter>
        <path d="M14.2901473,13.4544568 C13.6024398,13.3203532 13.0606886,12.8225957 12.9106118,12.1945207 C12.8813338,12.0604171 12.8730926,11.9609852 12.8980331,11.941856 C12.918853,11.9227268 13.0314106,11.8804831 13.1522094,11.84621 C13.7856984,11.6547189 14.2816892,11.1721053 14.4775264,10.5402443 C14.5859634,10.1995056 14.5484442,9.61726088 14.3983674,9.31478057 C14.2732311,9.05813061 14.2233501,9.01608624 14.1149131,9.06968783 C14.0524534,9.10037423 14.0398747,9.1577618 14.0398747,9.42198374 C14.0398747,10.3716683 13.5313052,11.0226585 12.6061207,11.2677513 C12.2643272,11.3596113 11.7475165,11.3291241 11.3306847,11.1950205 C11.0556884,11.1107325 10.9847706,11.0649022 10.7429561,10.8311674 C10.4345613,10.540045 10.1719269,10.0996751 10.0593693,9.69756363 C9.98021025,9.40644127 9.98021025,8.77458022 10.0593693,8.4567567 C10.3471611,7.33869541 11.5141601,6.5 12.7895961,6.5 C13.5065815,6.5 14.1734691,6.74509274 14.6902798,7.19701985 C14.8611765,7.34626738 15.0695925,7.56844495 15.1487515,7.69099133 L15.2988283,7.90918365 L15.4905449,7.77508006 C16.9284195,6.76023669 19,7.69457805 19,9.35283969 C19,10.0383023 18.5790476,10.7275509 17.9537998,11.0647029 C17.5454261,11.2868805 16.9242989,11.4016556 16.5324076,11.3327108 L16.3324498,11.2982384 L16.3658484,11.3978696 C16.3825477,11.4514712 16.3951264,11.6774348 16.3951264,11.8996123 C16.3951264,12.2748234 16.3868851,12.320853 16.2617488,12.5506026 C16.0158137,13.0138876 15.5532215,13.3470544 15.0112534,13.4504715 C14.6777011,13.5158296 14.5944215,13.5158296 14.2901473,13.4544568 Z" id="path-25"></path>
        <filter x="-16.7%" y="-21.4%" width="133.3%" height="142.9%" filterUnits="objectBoundingBox" id="filter-26">
            <feOffset dx="0" dy="0" in="SourceAlpha" result="shadowOffsetOuter1"></feOffset>
            <feGaussianBlur stdDeviation="0.5" in="shadowOffsetOuter1" result="shadowBlurOuter1"></feGaussianBlur>
            <feColorMatrix values="0 0 0 0 0.97254902   0 0 0 0 0.768627451   0 0 0 0 0.42745098  0 0 0 0.853693182 0" type="matrix" in="shadowBlurOuter1"></feColorMatrix>
        </filter>
    </defs>
    <g id="Page-2" stroke="none" stroke-width="1" fill="none" fill-rule="evenodd">
        <g id="Artboard" transform="translate(-285.000000, -288.000000)" fill-rule="nonzero">
            <g id="Group-3" transform="translate(285.000000, 288.000000)">
                <g id="Group-2" transform="translate(4.500000, 1.000000)">
                    <g id="Path" transform="translate(4.500000, 13.500000) scale(1, -1) translate(-4.500000, -13.500000) ">
                        <use fill="black" fill-opacity="1" filter="url(#filter-2)" xlink:href="#path-1"></use>
                        <use fill="#FFFFFF" xlink:href="#path-1"></use>
                    </g>
                    <g id="Path-Copy" transform="translate(4.500000, 13.500000) scale(1, -1) translate(-4.500000, -13.500000) ">
                        <use fill="black" fill-opacity="1" filter="url(#filter-4)" xlink:href="#path-3"></use>
                        <use fill="#FFFFFF" xlink:href="#path-3"></use>
                    </g>
                    <g id="Path-Copy-12" transform="translate(17.000000, 3.500000) scale(1, -1) translate(-17.000000, -3.500000) ">
                        <use fill="black" fill-opacity="1" filter="url(#filter-6)" xlink:href="#path-5"></use>
                        <use fill="#FFFFFF" xlink:href="#path-5"></use>
                    </g>
                    <g id="Path-Copy-8" transform="translate(26.000000, 4.000000) scale(1, -1) translate(-26.000000, -4.000000) ">
                        <use fill="black" fill-opacity="1" filter="url(#filter-8)" xlink:href="#path-7"></use>
                        <use fill="#FFFFFF" xlink:href="#path-7"></use>
                    </g>
                    <g id="Path-Copy-7" transform="translate(31.500000, 5.000000) scale(1, -1) translate(-31.500000, -5.000000) ">
                        <use fill="black" fill-opacity="1" filter="url(#filter-10)" xlink:href="#path-9"></use>
                        <use fill="#FFFFFF" xlink:href="#path-9"></use>
                    </g>
                    <g id="Path-Copy-9" transform="translate(21.000000, 4.000000) scale(1, -1) translate(-21.000000, -4.000000) ">
                        <use fill="black" fill-opacity="1" filter="url(#filter-12)" xlink:href="#path-11"></use>
                        <use fill="#FFFFFF" xlink:href="#path-11"></use>
                    </g>
                    <g id="Path-Copy-6" transform="translate(36.500000, 8.500000) scale(1, -1) translate(-36.500000, -8.500000) ">
                        <use fill="black" fill-opacity="1" filter="url(#filter-14)" xlink:href="#path-13"></use>
                        <use fill="#FFFFFF" xlink:href="#path-13"></use>
                    </g>
                    <g id="Path-Copy-5" transform="translate(27.500000, 7.500000) scale(1, -1) translate(-27.500000, -7.500000) ">
                        <use fill="black" fill-opacity="1" filter="url(#filter-16)" xlink:href="#path-15"></use>
                        <use fill="#FFFFFF" xlink:href="#path-15"></use>
                    </g>
                    <g id="Path-Copy-4" transform="translate(20.500000, 8.000000) scale(1, -1) translate(-20.500000, -8.000000) ">
                        <use fill="black" fill-opacity="1" filter="url(#filter-18)" xlink:href="#path-17"></use>
                        <use fill="#FFFFFF" xlink:href="#path-17"></use>
                    </g>
                    <g id="Path-Copy-10" transform="translate(13.500000, 4.500000) scale(1, -1) translate(-13.500000, -4.500000) ">
                        <use fill="black" fill-opacity="1" filter="url(#filter-20)" xlink:href="#path-19"></use>
                        <use fill="#FFFFFF" xlink:href="#path-19"></use>
                    </g>
                    <g id="Path-Copy-11" transform="translate(8.500000, 8.000000) scale(1, -1) translate(-8.500000, -8.000000) ">
                        <use fill="black" fill-opacity="1" filter="url(#filter-22)" xlink:href="#path-21"></use>
                        <use fill="#FFFFFF" xlink:href="#path-21"></use>
                    </g>
                    <g id="Path-Copy-2" transform="translate(9.000000, 11.000000) scale(1, -1) translate(-9.000000, -11.000000) ">
                        <use fill="black" fill-opacity="1" filter="url(#filter-24)" xlink:href="#path-23"></use>
                        <use fill="#FFFFFF" xlink:href="#path-23"></use>
                    </g>
                    <g id="Path-Copy-3" transform="translate(14.500000, 10.000000) scale(1, -1) translate(-14.500000, -10.000000) ">
                        <use fill="black" fill-opacity="1" filter="url(#filter-26)" xlink:href="#path-25"></use>
                        <use fill="#FFFFFF" xlink:href="#path-25"></use>
                    </g>
                </g>
                <g id="Shopify_logo_2018-(3)">
                    <path d="M36.1252,6.99239 C36.3932,6.91249 37.0824,6.80596 37.4352,7.15885 C37.7881,7.51175 41.3604,10.9808 41.3604,10.9808 C41.3604,10.9808 45.6318,11.0457 45.8498,11.064 C46.0695,11.0823 46.3342,11.2504 46.3758,11.5534 C46.416568,11.85034 52.6906201,54.2709042 52.9415659,55.967608 L52.9493,56.0199 L36.9392,60 L0,53.6113 C0,53.6113 4.40787,19.5268 4.571,18.3267 C4.79073,16.7386 4.84399,16.687 6.52857,16.1577 C6.58017,16.141 8.91395,15.4186 12.2515,14.3849 C12.2520959,14.3806311 12.2526943,14.3763602 12.2532952,14.3720871 L14.325,13.7285243 L14.3222,13.7424 C15.6427833,13.3345667 17.0581583,12.8954833 18.5114963,12.4454625 L19.3876,12.1743 C19.3888046,12.1679681 19.390013,12.1616357 19.3912253,12.1553029 L21.521,11.4935243 L21.515,11.5168 C23.3312857,10.9546 25.1427224,10.393649 26.8423178,9.86749936 L27.6823,9.60748 C27.6824092,9.59870751 27.6825126,9.58991209 27.6826102,9.58109397 L29.613,8.9795243 L29.6149,9.00823 C30.4888167,8.73773 31.3061361,8.48457028 32.0465458,8.25549273 L32.4814,8.12099 C32.4784911,8.11153418 32.4755569,8.1020377 32.4725972,8.09250136 L34.32,7.5175243 L34.3308,7.54837 C35.384175,7.22221375 36.0366809,7.02041395 36.1168485,6.99508698 Z" id="Combined-Shape" fill="#FF2A53"></path>
                    <path d="M45.8514,11.0657 C45.6334,11.0474 41.362,10.9825 41.362,10.9825 C41.362,10.9825 37.7898,7.51344 37.4369,7.16055 C37.3054,7.02904 37.1273,6.96079 36.9408,6.9325 L36.9425,59.9984 L52.951,56.02 C52.951,56.02 46.4191,11.8581 46.3775,11.5551 C46.3358,11.2521 46.0695,11.084 45.8514,11.0657 Z" id="Path" fill="#B50023"></path>
                    <path d="M28.0668,19.2972 L26.2075,26.2535 C26.2075,26.2535 24.1334,25.3097 21.6748,25.4645 C18.0692,25.6926 18.0309,27.9664 18.0676,28.5374 C18.264,31.6485 26.4488,32.3277 26.9083,39.6153 C27.2695,45.3482 23.867,49.27 18.9648,49.5796 C13.0804,49.9508 9.84109,46.4801 9.84109,46.4801 L11.0879,41.1767 C11.0879,41.1767 14.3488,43.637 16.9589,43.4722 C18.6635,43.364 19.2727,41.9774 19.2111,40.9969 C18.9548,36.9386 12.2897,37.1783 11.8686,30.5099 C11.514,24.8986 15.1995,19.2123 23.331,18.6996 C26.4638,18.4982 28.0668,19.2972 28.0668,19.2972 Z" id="Path" fill="#FFFFFF"></path>
                </g>
            </g>
        </g>
    </g>
</svg>